<svg xmlns="http://www.w3.org/2000/svg" width="980" height="320" viewBox="0 0 980 320">
  <rect width="980" height="320" fill="#101522"/>
  <rect x="35" y="90" width="190" height="70" rx="10" fill="#224870"/>
  <text x="130" y="132" text-anchor="middle" font-family="Arial" font-size="14" fill="#fff">Scheduler</text>

  <rect x="270" y="90" width="220" height="70" rx="10" fill="#2f5d91"/>
  <text x="380" y="122" text-anchor="middle" font-family="Arial" font-size="14" fill="#fff">Renewal workflow</text>
  <text x="380" y="142" text-anchor="middle" font-family="Arial" font-size="12" fill="#e6f1ff">pre-check -> renew -> validate</text>

  <rect x="540" y="40" width="190" height="70" rx="10" fill="#607d8b"/>
  <text x="635" y="82" text-anchor="middle" font-family="Arial" font-size="13" fill="#fff">SSH key store</text>

  <rect x="540" y="170" width="190" height="70" rx="10" fill="#607d8b"/>
  <text x="635" y="212" text-anchor="middle" font-family="Arial" font-size="13" fill="#fff">TLS endpoint / CA</text>

  <rect x="770" y="105" width="175" height="70" rx="10" fill="#1f8f5f"/>
  <text x="858" y="134" text-anchor="middle" font-family="Arial" font-size="13" fill="#fff">Validation + rollback</text>
  <text x="858" y="153" text-anchor="middle" font-family="Arial" font-size="11" fill="#e7fff2">alerts + audit logs</text>

  <line x1="225" y1="125" x2="270" y2="125" stroke="#fff" stroke-width="2"/>
  <line x1="490" y1="112" x2="540" y2="75" stroke="#fff" stroke-width="2"/>
  <line x1="490" y1="137" x2="540" y2="205" stroke="#fff" stroke-width="2"/>
  <line x1="730" y1="75" x2="770" y2="120" stroke="#fff" stroke-width="2"/>
  <line x1="730" y1="205" x2="770" y2="155" stroke="#fff" stroke-width="2"/>
</svg>
